<svg width="14" height="14" viewBox="0 0 14 14" fill="none" xmlns="http://www.w3.org/2000/svg">
<g clip-path="url(#clip0_2943_32079)">
<rect width="14" height="14" fill="white" fill-opacity="0.01"/>
<g clip-path="url(#clip1_2943_32079)">
<path d="M11.6889 9.8305C13.1773 8.50225 13.9998 6.99725 13.9998 6.99725C13.9998 6.99725 11.3748 2.18475 6.99976 2.18475C6.1594 2.18764 5.32855 2.36275 4.55851 2.69925L5.23226 3.37387C5.79876 3.16751 6.39684 3.06122 6.99976 3.05975C8.85476 3.05975 10.3939 4.08175 11.5218 5.20962C12.0646 5.75535 12.5512 6.35424 12.9743 6.99725C12.9235 7.07337 12.8675 7.15738 12.8036 7.24925C12.5105 7.66925 12.0774 8.22925 11.5218 8.78488C11.3774 8.92925 11.2269 9.07188 11.0694 9.21013L11.6889 9.8305Z" fill="#6C757D"/>
<path d="M9.88463 8.02625C10.0799 7.48011 10.1161 6.88975 9.9889 6.32387C9.86176 5.75798 9.57653 5.23984 9.16641 4.82972C8.7563 4.4196 8.23815 4.13437 7.67226 4.00723C7.10638 3.88008 6.51602 3.91624 5.96988 4.1115L6.69001 4.83163C7.02628 4.78349 7.36914 4.81434 7.69142 4.92172C8.0137 5.0291 8.30654 5.21006 8.54675 5.45026C8.78695 5.69046 8.96791 5.98331 9.07529 6.30559C9.18267 6.62787 9.21351 6.97073 9.16538 7.307L9.88463 8.02625ZM7.30951 9.16288L8.02876 9.88212C7.48262 10.0774 6.89226 10.1135 6.32637 9.9864C5.76049 9.85925 5.24234 9.57403 4.83222 9.16391C4.4221 8.75379 4.13688 8.23564 4.00973 7.66976C3.88258 7.10387 3.91875 6.51351 4.11401 5.96737L4.83413 6.6875C4.786 7.02377 4.81684 7.36663 4.92422 7.68891C5.0316 8.01119 5.21256 8.30404 5.45277 8.54424C5.69297 8.78444 5.98581 8.9654 6.30809 9.07278C6.63037 9.18016 6.97323 9.21101 7.30951 9.16288Z" fill="#6C757D"/>
<path d="M2.93101 4.7835C2.77351 4.9235 2.62213 5.06525 2.47776 5.20962C1.93495 5.75535 1.44834 6.35424 1.02526 6.99725L1.19588 7.24925C1.48901 7.66925 1.92213 8.22925 2.47776 8.78488C3.60563 9.91275 5.14563 10.9347 6.99976 10.9347C7.62626 10.9347 8.21601 10.8184 8.76726 10.6198L9.44101 11.2952C8.67095 11.6317 7.84011 11.8068 6.99976 11.8097C2.62476 11.8097 -0.000244141 6.99725 -0.000244141 6.99725C-0.000244141 6.99725 0.821381 5.49138 2.31063 4.164L2.93013 4.78438L2.93101 4.7835ZM11.94 12.557L1.44001 2.057L2.05951 1.4375L12.5595 11.9375L11.94 12.557Z" fill="#6C757D"/>
</g>
</g>
<defs>
<clipPath id="clip0_2943_32079">
<rect width="14" height="14" fill="white"/>
</clipPath>
<clipPath id="clip1_2943_32079">
<rect width="14" height="14" fill="white"/>
</clipPath>
</defs>
</svg>
